<svg id="Layer_5" data-name="Layer 5" xmlns="http://www.w3.org/2000/svg" viewBox="0 0 900 900"><defs><style>.cls-1{fill:#283170;}.cls-2{fill:#74c9e3;}.cls-3{fill:#4387bb;}</style></defs><path class="cls-1" d="M322.68,690.32,332,695.1l-21.73,42.17L301,732.48Z"/><path class="cls-1" d="M311.39,684.89l-27.77,38.46L272.11,715l2.94-38.53-.11-.08-19.29,26.73L247.17,697l27.77-38.46,11.08,8-3,39.5.11.07,19.76-27.37Z"/><path class="cls-1" d="M235.06,686.05,209.1,659l6.68-6.39,9.36,9.77,27.57-26.43,7.23,7.55-27.57,26.42,9.36,9.77Z"/><path class="cls-1" d="M199.39,646.72,181,620.23l7.93-5.49,12.4,17.9,7.27-5-11.71-16.91,7.93-5.49,11.71,16.91,7.93-5.5-13.09-18.88,7.93-5.5,19,27.48Z"/><path class="cls-1" d="M213.89,582.63l-43,20L163,585.74c-3.62-7.77-4.81-17.12,5.64-22,6.31-2.94,12.3-1.52,16.11,3.8l13.05-19.4,5.3,11.36-13,17,2.18,4.67,17.18-8ZM181.53,579c-2-4.37-4.3-7.31-8.37-5.41-3.52,1.64-3.76,4.93-1.66,9.42l3,6.44,9.77-4.56Z"/><path class="cls-1" d="M195,540.47,148.9,551.86l-3.41-13.79,27.17-27.5,0-.13-32,7.92-2.51-10.15,46-11.39,3.29,13.27L159.63,538.3l0,.13,32.79-8.11Z"/><path class="cls-1" d="M182.91,489.59,134.7,471l-.34-8.63L181,439.84l.46,11.79-9.88,4.48.72,18.41,10.2,3.56Zm-19.62-18L162.84,460l-14.5,6.4Z"/><path class="cls-1" d="M134.24,436l4.31-37.27,9.19,1.06-1.56,13.44,37.94,4.4L182.92,428,145,423.62l-1.56,13.44Z"/><path class="cls-1" d="M190.35,386l-2.44,10.16-46.13-11.07L144.22,375Z"/><path class="cls-1" d="M189.36,319.73c13.95,5.71,19,19.36,13.37,33.13S184,372.84,170,367.1s-19-19.29-13.37-33.12S175.41,314,189.36,319.73Zm4.44,29.47c3.35-8.18-.3-16.05-8.55-19.43s-16.37-.32-19.75,7.92.27,16,8.58,19.37S190.43,357.45,193.8,349.2Z"/><path class="cls-1" d="M216.18,320.43l-39.06-26.91,8.06-11.69,38.58,2.09.08-.11-27.15-18.7,5.93-8.61,39.07,26.91-7.76,11.26-39.55-2.11-.08.11,27.81,19.16Z"/><path class="cls-1" d="M246.26,277.66l-18.07-48.42,6.23-6,47.75,19.92-8.51,8.17-9.91-4.42-13.29,12.76,4.12,10ZM246.7,251l8.36-8-14.41-6.59Z"/><path class="cls-1" d="M292.09,225.2l16-10.88,5.43,8-24.67,16.75L262.2,199.82l8.65-5.88Z"/><path class="cls-1" d="M321.91,164.05l14.95-5.15,20.4,25.72.13,0,.32-32.85,14.89-5.12L388,191.46l-9.88,3.4-11.84-34.4-.13,0,.06,38.46-7.54,2.6-23.18-30.5-.13,0,11.84,34.4-9.88,3.41Z"/><path class="cls-1" d="M395.51,190l15.17-49.4,8.59-1L445,184.55l-11.72,1.3-5.16-9.54-18.31,2L407,188.75Zm16.57-20.84,11.52-1.27-7.41-14Z"/><path class="cls-1" d="M446,137.7l37.48,1.72-.43,9.24L469.5,148l-1.76,38.14-10.44-.48,1.75-38.14-13.51-.63Z"/><path class="cls-1" d="M499.85,141.45,510,143.76,506.14,161l19.8,4.48,3.9-17.25,10.2,2.3-10.47,46.27-10.19-2.3,4.52-20L504.1,170l-4.53,20-10.19-2.31Z"/><path class="cls-1" d="M560.49,157.68l29.58,12.78-3.82,8.86-20-8.64-3.51,8.12L581.63,187l-3.82,8.85-18.89-8.15-3.82,8.86,21.1,9.11-3.83,8.85-30.69-13.25Z"/><path class="cls-1" d="M609.86,180.33l12.92,9.11L613.86,221l.11.08,26.82-19,12.87,9.07L626.31,250l-8.54-6,21-29.73-.11-.07L607.48,236.7,601,232.11l11.17-36.65-.11-.07-21,29.73-8.54-6Z"/><path class="cls-1" d="M631.9,255.2l48.91-16.71,5.81,6.4-21.25,47.17-7.93-8.73,4.69-9.79L649.75,259.9l-10.1,3.83Zm26.6,1.19,7.79,8.58,7-14.23Z"/><path class="cls-1" d="M703.9,265.36l20.57,31.38-7.74,5.07-7.41-11.32-31.94,20.93-5.73-8.74,31.94-20.93-7.42-11.32Z"/><path class="cls-1" d="M693,340l-4.63-9.37,42.54-21,4.62,9.37Z"/><path class="cls-1" d="M750.69,375.65l-8.77-5.55a11.09,11.09,0,0,0,.84-9.74c-2.35-7.06-10-11.15-18.84-8.2-7.5,2.51-12.87,9.67-10.24,17.55a11.2,11.2,0,0,0,7.92,7.67l-3.4,10.32C711.8,385.88,707,380.2,705,374c-4.71-14.1,1.17-27.37,15.54-32.16s27,2.21,31.74,16.38C754.21,364.17,753.89,370.84,750.69,375.65Z"/><path class="cls-1" d="M712.8,394.33l49.69,14.2,1.11,8.57-44.37,26.59L717.71,432l9.44-5.35-2.38-18.27-10.48-2.62ZM734,410.49l1.5,11.49,13.86-7.68Z"/><path class="cls-1" d="M727.8,462.77,727,482.12l-9.64-.38,1.17-29.8L766,453.8l-.41,10.45Z"/><path class="cls-1" d="M756.13,532.09l-27.76-8c-5.41-1.55-10.84,1.07-12.37,6.42-1.37,4.76,1.18,10.23,7.1,11.93l27.76,8-2.88,10-28.21-8.1c-9.92-2.84-16.81-11.37-13-24.51S720.88,511.11,730.8,514L759,522Z"/><path class="cls-1" d="M698.21,558.46l42,22-6.59,12.58-38.57,2.57-.06.12,29.2,15.3-4.85,9.26-42-22,6.34-12.11,39.53-2.67.06-.11-29.92-15.68Z"/><path class="cls-1" d="M663.51,616.58l6.17-8.43,38.28,28-6.17,8.44Z"/><path class="cls-1" d="M639.09,678c-10.7-10.63-10.13-25.17.35-35.73s25-11.26,35.73-.58,10.17,25.12-.36,35.72S649.78,688.64,639.09,678Zm7.2-28.93c-6.23,6.28-5.87,14.95.45,21.23s15,6.58,21.27.26,5.87-14.85-.49-21.17S652.57,642.77,646.29,649.09Z"/><path class="cls-1" d="M614.74,667l25.83,39.79-11.91,7.74-34.87-16.67-.11.07,18,27.65-8.76,5.69L577,691.47,588.5,684l35.75,17.05.11-.07L606,672.68Z"/><path class="cls-2" d="M402,766.77,391.71,765l7.91-46.76L409.93,720Z"/><path class="cls-2" d="M422.6,723.35l15.81-.26,11.42,30.77H450l10.49-31.13,15.74-.25.76,47.43-10.45.17-.58-36.38h-.14l-11.87,36.58-8,.13-12.58-36.18h-.13l.58,36.37-10.44.17Z"/><path class="cls-2" d="M499,718.63l6.23,28.2c1.21,5.49,6.11,9,11.54,7.81,4.84-1.07,8.43-5.91,7.1-11.93l-6.22-28.19,10.2-2.26,6.33,28.65c2.22,10.08-2,20.2-15.33,23.15s-21.5-4.45-23.72-14.52l-6.33-28.65Z"/><path class="cls-1" d="M454,324.22a172.64,172.64,0,0,0-16,6.85c-2.93,1.47-5.83,3-8.72,4.62.81.6,1.62,1.18,2.43,1.75A90.09,90.09,0,0,0,442.42,344a50.84,50.84,0,0,0,10.36,4,45.83,45.83,0,0,0,10.68,1.42l.72,0h.92l1.83,0h3.76l7.88,0c5.41.05,11.26.21,17.36.84,1.87.19,3.76.45,5.65.73L502,345l.51-7.55.24-3.66.19-3.56c.27-5.94.32-11.84.07-17.6q-8.12.94-16.18,2.46A203.28,203.28,0,0,0,454,324.22Z"/><path class="cls-1" d="M396.74,424.26c1.44-1.24,2.81-2.56,4.11-3.92a68.67,68.67,0,0,0,6.71-8.28c3.76-5.45,6.23-10.09,8.69-13.88a73.91,73.91,0,0,1,7.38-9.92,66.12,66.12,0,0,1,5.85-5.73q-2.91-1.32-5.67-2.76a128,128,0,0,1-15.49-9.84c-4.18-3.08-8.06-6.18-11.77-9.24-.64.7-1.3,1.4-1.92,2.12a112.49,112.49,0,0,0-10.9,15c-3,4.95-5.52,9.38-7.62,12.42-.48.7-.94,1.32-1.39,1.89a132.89,132.89,0,0,0-1.07,16.53c0,1.09,0,2.18.05,3.26s.06,2.16.14,3.22c.12,2.13.28,4.38.52,6.48a82.19,82.19,0,0,0,2.17,12.11c.29,1.11.61,2.19,1,3.27a114.92,114.92,0,0,0,15.17-9.41c.68-.52,1.36-1.08,2-1.62S396,424.93,396.74,424.26Z"/><path class="cls-1" d="M660,378.15a67.19,67.19,0,0,0-9.4-19.88,80.13,80.13,0,0,0-13.8-15.2,100.91,100.91,0,0,0-15.77-11,144,144,0,0,0-33.24-13.38c-5.59-1.51-11.19-2.74-16.77-3.75s-11.12-1.82-16.72-2.43q-5.74-.63-11.53-.95c.23,7,.09,13.88-.26,20.68l-.26,4.14-.14,2.06-.17,2-.68,7.8-.18,1.9q4.53.27,9,.76c4.66.52,9.29,1.21,13.9,2s9,1.94,13.39,3.17A100.12,100.12,0,0,1,601.31,366c7,4.17,12.76,9.28,16.25,14.65a27,27,0,0,1,3.62,8.05,22.3,22.3,0,0,1,.55,7.95,24.2,24.2,0,0,1-2.44,8,28.28,28.28,0,0,1-2.37,4c-.4.61-1.09,1.43-1.65,2.19s-1.23,1.52-1.84,2.28a67.06,67.06,0,0,1-8.06,8q7.43,9.42,14,19.54,4.54,7.08,8.64,14.49a113.17,113.17,0,0,0,16.46-15.64c1-1.24,2.08-2.44,3-3.73s1.91-2.49,2.95-4a70.22,70.22,0,0,0,5.43-9.37A64.73,64.73,0,0,0,662,400.87,61,61,0,0,0,660,378.15Z"/><path class="cls-1" d="M584.65,463.13a218.1,218.1,0,0,0-15.27-20.64c-9,4.24-18.56,8.46-28.4,13.4-5,2.5-10,5.21-15,8.28-1.27.8-2.46,1.52-3.78,2.39s-2.63,1.71-3.94,2.67a91.91,91.91,0,0,0-7.74,6.13,85.93,85.93,0,0,0-7.23,7.3,94.25,94.25,0,0,0-6.18,8c-1.84,2.67-3.46,5.3-4.88,7.68l-3.9,6.58c-1.21,2-2.36,3.81-3.53,5.49s-2.36,3.28-3.63,4.8a80,80,0,0,1-8.48,8.75,119.73,119.73,0,0,1-10.26,8.11,106.13,106.13,0,0,1-11,6.8,149.66,149.66,0,0,1-25,10.59,215.82,215.82,0,0,1-55.37,9.95A210.44,210.44,0,0,1,343,559a153.92,153.92,0,0,1-26.89-4.57,91,91,0,0,1-23.31-9.48c-6.76-4-11.91-8.94-15.11-14.24a38.48,38.48,0,0,1-4.1-9.26,27.91,27.91,0,0,1-1.1-8.93,29.19,29.19,0,0,1,1.85-9,41.77,41.77,0,0,1,4.89-9.17,75.94,75.94,0,0,1,17.3-17.09,141.64,141.64,0,0,1,23.35-13.7l6.67-3.06,7-3.15,6.71-3a99.88,99.88,0,0,1-3.33-9.84,122.7,122.7,0,0,1-3.52-18.15c-.18-1.48-.36-3-.47-4.43s-.28-2.93-.34-4.44c0-.79-.07-1.59-.1-2.38l-.41.17-14.31,6.07-7.2,3.09L307,426c-1.24.56-2.56,1.14-3.84,1.74a180.56,180.56,0,0,0-30.06,17.4,114.93,114.93,0,0,0-26.58,26.18,81,81,0,0,0-9.71,18,69.09,69.09,0,0,0-4.52,21.2,68.31,68.31,0,0,0,2.41,21.68,78.42,78.42,0,0,0,8.14,19.07A76.6,76.6,0,0,0,256,567.75a91.13,91.13,0,0,0,15.74,12,131.18,131.18,0,0,0,33.69,14.14,195.62,195.62,0,0,0,34,6,242.52,242.52,0,0,0,33.74.66,256.84,256.84,0,0,0,66.13-11.86,191.6,191.6,0,0,0,31.91-13.52,144,144,0,0,0,15.32-9.51,156.14,156.14,0,0,0,13.87-11.24c2.25-2,4.46-4.24,6.61-6.5s4.21-4.7,6.16-7.22a122.14,122.14,0,0,0,10.14-15.34l3.81-6.83c1.16-2.08,2.22-3.86,3.26-5.47a40.26,40.26,0,0,1,6.79-8.06,55.42,55.42,0,0,1,4.35-3.52c.76-.58,1.62-1.13,2.45-1.7.39-.28.87-.57,1.35-.86l1.41-.88c3.8-2.32,7.87-4.51,12.14-6.64,8.53-4.29,17.84-8.23,27.53-12.6,2-.9,4-1.82,6-2.77Q588.77,469.46,584.65,463.13Z"/><path class="cls-3" d="M542.19,566.22c2.63-5.94,5-12,7.15-18.16a203.77,203.77,0,0,0,8.4-32.91c.46-2.84.89-5.68,1.22-8.58.17-1.43.31-2.92.44-4.35l.32-4.24q.21-3.56.31-7.17l-1.19.59c-4.27,2.13-8.34,4.32-12.14,6.64l-1.41.88c-.48.29-1,.58-1.35.86-.83.57-1.69,1.12-2.45,1.7a55.42,55.42,0,0,0-4.35,3.52,40.26,40.26,0,0,0-6.79,8.06c-1,1.61-2.1,3.39-3.26,5.47l-3.81,6.83a122.14,122.14,0,0,1-10.14,15.34c-1.34,1.73-2.75,3.39-4.19,5,5.83,4.18,11.69,8.13,17.59,11.78C531.73,560.69,537,563.64,542.19,566.22Z"/><path class="cls-3" d="M526.15,404.06a109.62,109.62,0,0,0-11.38-6.24,78.43,78.43,0,0,0-11.37-4.26c-1.4-.4-2.81-.74-4.23-1.05a144.71,144.71,0,0,0,.59,17.56l.3,2.49c.13.87.24,1.71.4,2.61.32,1.77.74,3.73,1.23,5.53a69.85,69.85,0,0,0,3.53,9.9c2.6,5.92,5.13,10.43,7.12,14.6a90.37,90.37,0,0,1,4.85,11.85,74.31,74.31,0,0,1,2.65,11.11l2.4-1.6c1.32-.87,2.51-1.59,3.78-2.39,5-3.07,10-5.78,15-8.28,4.79-2.4,9.51-4.63,14.13-6.78-.42-1.41-.86-2.82-1.34-4.21a129.87,129.87,0,0,0-7-16.57c-2.5-5.07-5-9.56-6.49-13.05-.3-.69-.56-1.33-.79-1.94l-2-1.52C533.73,409,530,406.42,526.15,404.06Z"/><path class="cls-3" d="M505.32,590.42c-5.05-3.37-9.92-6.87-14.66-10.43-1.16,1.73-2.34,3.44-3.56,5.13a166.91,166.91,0,0,1-17.87,21.1A96.93,96.93,0,0,1,449,621.9c-7,3.93-14.25,6.3-20.75,6.66a29.64,29.64,0,0,1-9.14-.83,27.18,27.18,0,0,1-7.88-3.48,28,28,0,0,1-6.56-6,33,33,0,0,1-2.66-3.9,39.77,39.77,0,0,1-2.22-4.48,48,48,0,0,1-3.28-11.47q-11.61,1.61-23.33,2.18-8.68.44-17.42.24c.25,2,.55,4,.92,6a90.29,90.29,0,0,0,5.64,19,71.39,71.39,0,0,0,27.09,32.51,65.31,65.31,0,0,0,20.35,8.53,70.12,70.12,0,0,0,21.46,1.5A81,81,0,0,0,451.1,664a98.73,98.73,0,0,0,17.4-8.12,139.58,139.58,0,0,0,28.11-22.22c4.07-4.1,7.91-8.41,11.48-12.71s7.06-8.72,10.33-13.29q2.31-3.21,4.5-6.51C516.77,597.79,510.94,594.17,505.32,590.42Z"/><path class="cls-3" d="M332.59,417.52c.06,1.51.21,3,.34,4.44s.29,3,.47,4.43a122.7,122.7,0,0,0,3.52,18.15,104,104,0,0,0,6.83,17.77c2.73,5.57,5.72,10.52,8.14,14.67a83.67,83.67,0,0,1,5.76,11.23c.71,1.75,1.3,3.53,1.84,5.34s1,3.7,1.32,5.68c.2,1,.33,2,.49,3s.25,1.95.34,2.95c.18,2,.27,4.05.3,6.17a132.52,132.52,0,0,1-.61,13.38c-.82,9.31-2.49,19.22-3.92,29.73-.23,1.72-.46,3.46-.68,5.21,4.78.07,9.59,0,14.39-.26a227.07,227.07,0,0,0,26.52-2.91c1.13-8.93,2.44-18.31,3.32-28.3.47-5.58.78-11.37.69-17.4,0-3-.2-6.09-.49-9.22-.15-1.55-.33-3.17-.54-4.7s-.41-3.06-.71-4.62c-.5-3.09-1.24-6.23-2.05-9.35s-1.88-6.24-3.05-9.26-2.47-5.94-3.81-8.71-2.72-5.32-4-7.7c-2.63-4.79-4.83-8.72-6.52-12.43a68,68,0,0,1-3.93-11.07,82.19,82.19,0,0,1-2.17-12.11c-.24-2.1-.4-4.35-.52-6.48-.08-1.06-.12-2.14-.14-3.22s0-2.17-.05-3.26a144.6,144.6,0,0,1,2.68-26.8,204.34,204.34,0,0,1,18.09-52.72,200.43,200.43,0,0,1,14.14-24,150.63,150.63,0,0,1,17.22-20.88,94.13,94.13,0,0,1,19.86-15.45,49.05,49.05,0,0,1,20.52-6.62,45,45,0,0,1,10.55.44,26.26,26.26,0,0,1,8.18,2.76,23.05,23.05,0,0,1,6.3,5.2,35.69,35.69,0,0,1,5.15,8.33c3,6.58,4.94,14.91,5.94,23.7a177.63,177.63,0,0,1,.69,27.63l-.19,3.56-.24,3.66L502,345l-.45,6.05a111.82,111.82,0,0,1,12.91,2.71,117,117,0,0,1,17.65,6.51c2.61,1.21,5.14,2.49,7.62,3.82,0-.17,0-.33,0-.5l1.45-15.4.68-7.8.17-2,.14-2.06.26-4.14a216.09,216.09,0,0,0-.64-33.93,141.13,141.13,0,0,0-3-17.68,101.76,101.76,0,0,0-6-18.16,75.74,75.74,0,0,0-11-17.8,63.35,63.35,0,0,0-17.26-14.41,66.44,66.44,0,0,0-20.77-7.41,85.87,85.87,0,0,0-20.16-1.13,83,83,0,0,0-20,3.78,96.38,96.38,0,0,0-17.81,7.73,133.84,133.84,0,0,0-28.86,22,191.07,191.07,0,0,0-22.14,26.45,232.2,232.2,0,0,0-17.25,29,245.28,245.28,0,0,0-21.81,63.51,186,186,0,0,0-3.45,34.45c0,1.48,0,2.95.06,4.44S332.49,416,332.59,417.52Z"/><path class="cls-2" d="M315.7,485.54a212.22,212.22,0,0,0,24.07,24.09,162.44,162.44,0,0,0,21.52,15.51c0-.14,0-.28,0-.42a132.52,132.52,0,0,0,.61-13.38c0-2.12-.12-4.18-.3-6.17-.09-1-.18-1.94-.34-2.95s-.29-2-.49-3c-.34-2-.83-3.83-1.32-5.68s-1.13-3.59-1.84-5.34A83.67,83.67,0,0,0,351.89,477c-2.42-4.15-5.41-9.1-8.14-14.67-1.14-2.31-2.21-4.71-3.2-7.16l-.52-.68-6.49,2.91-7,3.15-6.67,3.06a155.61,155.61,0,0,0-15.12,8.16Q310,478.83,315.7,485.54Z"/><path class="cls-2" d="M458.07,512.08a84.47,84.47,0,0,0-9.83-2.3c-3.15-.56-6.13-.93-9-1.24-5.65-.59-10.64-.94-15.31-1.47a120.67,120.67,0,0,1-13.18-2.21,95.39,95.39,0,0,1-9.59-2.79c.27,2.95.41,5.86.46,8.72.09,6-.22,11.82-.69,17.4-.39,4.37-.86,8.61-1.35,12.76,1,.23,1.93.48,2.91.69a158.24,158.24,0,0,0,17.39,2.72c5.61.58,10.92.92,15.54,1.37l1.05.11a140.16,140.16,0,0,0,15-7,106.13,106.13,0,0,0,11-6.8A119.73,119.73,0,0,0,472.73,524c1.18-1.05,2.29-2.12,3.37-3.19a63.82,63.82,0,0,0-8-4.72A66.62,66.62,0,0,0,458.07,512.08Z"/><path class="cls-2" d="M279.56,429c1.39,3,2.85,6,4.36,9a195,195,0,0,1,19.21-10.2c1.28-.6,2.6-1.18,3.84-1.74l3.6-1.55,7.2-3.09,1-.44c-1.34-2.65-2.63-5.32-3.84-8a160.12,160.12,0,0,1-9.21-26,120.34,120.34,0,0,1-2.59-13,91.08,91.08,0,0,1-.86-12.6c.09-8.15,1.56-15.62,4.48-21.41a28.07,28.07,0,0,1,5.18-7.47,21.06,21.06,0,0,1,6.58-4.52,27.64,27.64,0,0,1,8.7-2.08,44.54,44.54,0,0,1,10.66.54,67.08,67.08,0,0,1,11.26,2.93q3.85-9.46,8.44-18.63,4.31-8.59,9.34-16.86a109.67,109.67,0,0,0-22.71-6.37A84.2,84.2,0,0,0,324,286.5a66.87,66.87,0,0,0-21.26,5.24A60.19,60.19,0,0,0,284,304.64a67.35,67.35,0,0,0-12.55,17.78,79.81,79.81,0,0,0-3.93,9.68,84.66,84.66,0,0,0-2.57,9.79,100.37,100.37,0,0,0-1.85,19.2,140.54,140.54,0,0,0,4.88,35.6A199.53,199.53,0,0,0,279.56,429Z"/><path class="cls-2" d="M647.32,503a208.76,208.76,0,0,0-11.69-32.48,234.12,234.12,0,0,0-16.31-29.77,254.21,254.21,0,0,0-20.07-27,246.49,246.49,0,0,0-23.62-24.25c-2.16-1.9-4.33-3.78-6.61-5.62-1.12-.92-2.32-1.85-3.45-2.72l-3.37-2.54c-4.54-3.36-9.26-6.61-14.25-9.69a148.65,148.65,0,0,0-15.81-8.56,117,117,0,0,0-17.65-6.51,113.47,113.47,0,0,0-18.56-3.44c-6.1-.63-11.95-.79-17.36-.84l-7.88,0h-3.76l-1.83,0h-.92l-.72,0A45.83,45.83,0,0,1,452.78,348a50.84,50.84,0,0,1-10.36-4,90.09,90.09,0,0,1-10.76-6.58c-7.37-5.15-15-11.72-23.22-18.4l-3.22-2.61c-.86-.7-1.73-1.37-2.61-2.05q-4.37,7.19-8.19,14.76A214.09,214.09,0,0,0,385,351c7.21,6,14.65,12.53,23.35,18.95a128,128,0,0,0,15.49,9.84,91.47,91.47,0,0,0,18.41,7.38,86.54,86.54,0,0,0,19.89,3.07l1.22.06,1,0,2,0,4,.06,7.61.1c4.9.09,9.39.29,13.56.76a71.83,71.83,0,0,1,11.85,2.3,78.43,78.43,0,0,1,11.37,4.26,109.62,109.62,0,0,1,11.38,6.24c3.8,2.36,7.58,5,11.34,7.76L540.3,414c.9.7,1.75,1.35,2.63,2.07,1.74,1.39,3.48,2.9,5.2,4.4a204.66,204.66,0,0,1,19.61,20.08,216.72,216.72,0,0,1,16.91,22.62,193.35,193.35,0,0,1,13.56,24.46,154.73,154.73,0,0,1,9.33,25.73,93.45,93.45,0,0,1,3.29,25.06,56.17,56.17,0,0,1-1.31,11.21,39.89,39.89,0,0,1-3.43,9.53A29.94,29.94,0,0,1,593.38,572a36.83,36.83,0,0,1-19.26,4c-7-.26-15-2.39-23.07-5.75a166.7,166.7,0,0,1-24.51-12.72c-5.9-3.65-11.76-7.6-17.59-11.78-.65.74-1.3,1.48-2,2.21-2.15,2.26-4.36,4.45-6.61,6.5a156.14,156.14,0,0,1-13.87,11.24c-2.55,1.82-5.13,3.52-7.74,5.13l.33.27c8.37,6.61,17,13.2,26.23,19.36a203.47,203.47,0,0,0,29.86,16.84,128.69,128.69,0,0,0,17.25,6.24,95,95,0,0,0,19.37,3.4,79.67,79.67,0,0,0,20.61-1.31,75.37,75.37,0,0,0,20.11-7,69.71,69.71,0,0,0,17.54-12.9,71.82,71.82,0,0,0,12.71-17.51,80.46,80.46,0,0,0,7-19.54,97.85,97.85,0,0,0,2.25-19.51A134.12,134.12,0,0,0,647.32,503Z"/></svg>